:SAMPLES-PER-SECOND 24
:FULLY-SPECIFIED
:DEGREES
62
root  4.11463 42.1933 27.8561 7.948 49.2531 -3.34204
RightUpLeg  -16.7869 -7.27429 -8.03812
RightLeg  7.05702 -2.90954 0.146216
RightFoot  15.9599 -3.20166 13.6428
RightToes  -2.08645e-008 3.77894e-005 6.81332e-007
Spine  -3.34022 -3.02449 -4.4077
Spine1  2.49045 -3.88014 5.77392
HEad  -31.4715 -17.0067 7.05581
LeftShoulder1  7.39519 -13.2969 -37.9141
LeftArm  3.55549 28.2551 -28.843
LeftForeArm  170.887 -58.9632 -163.556
LeftHand  -0.162664 -2.47919 2.60361
RightShoulder  4.13647 6.83661 34.1137
RightArm  13.3022 -25.3144 31.7773
RightForeArm  151.876 72.1198 147.372
RightHand  0.126229 10.1676 0.528013
LeftUpLeg  -3.29974 6.94513 12.004
LeftLeg  8.97613 6.57387 1.5742
LeftFoot  9.48869 3.0741 -16.9351
LeftToes  1.24767e-006 1.47042e-008 1.32732e-009
63
root  4.01876 42.2774 27.218 7.28723 47.8499 -3.18219
RightUpLeg  -16.8163 -4.11396 -9.08761
RightLeg  12.3671 -1.64624 -1.34347
RightFoot  12.4164 -1.90198 9.43278
RightToes  -2.08645e-008 3.77894e-005 6.81332e-007
Spine  -2.74238 -2.74158 -4.11625
Spine1  3.14067 -3.64962 5.53372
HEad  -31.3089 -15.6686 7.42662
LeftShoulder1  7.13848 -13.0425 -37.0691
LeftArm  7.17535 25.0459 -27.4801
LeftForeArm  171.349 -57.0325 -164.732
LeftHand  -0.16273 -2.51362 2.59906
RightShoulder  4.00521 6.70463 33.3489
RightArm  13.8752 -24.1139 30.6979
RightForeArm  155.218 70.9758 149.88
RightHand  -0.0327662 9.80888 -0.655534
LeftUpLeg  -2.92446 5.53545 10.8884
LeftLeg  10.5009 6.9354 2.21464
LeftFoot  7.65502 2.45466 -14.8826
LeftToes  1.24767e-006 1.47042e-008 1.32732e-009
64
root  3.88181 41.661 26.5443 6.35754 46.2649 -3.16028
RightUpLeg  -17.6176 2.63911 -11.2132
RightLeg  21.4864 -3.84636 -1.79769
RightFoot  9.17678 -1.41437 8.19253
RightToes  -2.08645e-008 3.77894e-005 6.81332e-007
Spine  -2.17775 -2.50174 -3.20029
Spine1  4.38314 -3.30165 4.17566
HEad  -31.3402 -14.4383 7.88396
LeftShoulder1  6.51529 -12.3879 -34.9786
LeftArm  8.66249 20.8759 -27.9534
LeftForeArm  172.299 -56.9253 -164.872
LeftHand  -0.170018 -2.67375 2.66775
RightShoulder  3.83134 6.54849 32.229
RightArm  13.5846 -21.5048 31.011
RightForeArm  154.907 71.5673 148.839
RightHand  0.0579921 9.38144 0.0493077
LeftUpLeg  -2.7889 3.81034 9.85467
LeftLeg  13.7751 7.57036 2.85601
LeftFoot  5.58429 2.05348 -13.9881
LeftToes  1.24767e-006 1.47042e-008 1.32732e-009
65
root  3.71729 40.3829 25.9378 5.71387 45.6143 -2.99933
RightUpLeg  -17.1946 4.04681 -12.3914
RightLeg  27.0441 -3.23341 -2.01789
RightFoot  2.85669 -1.5242 12.5992
RightToes  -2.08645e-008 3.77894e-005 6.81332e-007
Spine  -1.09075 -2.4872 -3.26417
Spine1  4.41814 -3.30572 3.59472
HEad  -31.1228 -13.7659 7.89555
LeftShoulder1  6.2504 -12.0949 -34.0707
LeftArm  8.12285 16.1911 -27.5341
LeftForeArm  170.23 -58.7435 -163.64
LeftHand  -0.197932 -3.11086 2.9337
RightShoulder  3.74922 6.50387 31.5733
RightArm  12.9463 -18.658 30.6223
RightForeArm  149.964 73.2904 144.729
RightHand  -0.161807 9.16082 -1.67734
LeftUpLeg  -3.78957 2.82654 9.40908
LeftLeg  19.4778 7.38177 3.25822
LeftFoot  -2.89505 1.21201 -16.4881
LeftToes  1.24767e-006 1.47042e-008 1.32732e-009
66
root  3.49197 38.9299 25.3517 5.52087 46.0329 -2.0166
RightUpLeg  -16.0235 3.2717 -13.7609
RightLeg  28.7997 -3.41696 -2.26018
RightFoot  -7.26848 -0.569524 14.4553
RightToes  -2.08645e-008 3.77894e-005 6.81332e-007
Spine  0.383124 -2.41794 -5.29628
Spine1  4.83333 -3.65073 4.91052
HEad  -32.3781 -13.815 8.11938
LeftShoulder1  6.70374 -12.5522 -35.7143
LeftArm  7.11457 9.77948 -25.1811
LeftForeArm  168.959 -62.1417 -161.209
LeftHand  -0.369472 -3.064 5.30663
RightShoulder  3.6959 6.39814 31.434
RightArm  11.3415 -15.7999 29.4649
RightForeArm  146.194 74.8954 140.216
RightHand  -0.173119 9.45768 -1.75006
LeftUpLeg  -5.40897 1.74985 8.41116
LeftLeg  25.5638 6.54104 3.73133
LeftFoot  -14.9566 -0.48637 -18.0658
LeftToes  1.24767e-006 1.47042e-008 1.32732e-009
